<?xml version="1.0" encoding="UTF-8" standalone="no"?>
<!-- Created with Inkscape (http://www.inkscape.org/) -->

<svg
   xmlns:dc="http://purl.org/dc/elements/1.1/"
   xmlns:cc="http://creativecommons.org/ns#"
   xmlns:rdf="http://www.w3.org/1999/02/22-rdf-syntax-ns#"
   xmlns:svg="http://www.w3.org/2000/svg"
   xmlns="http://www.w3.org/2000/svg"
   xmlns:sodipodi="http://sodipodi.sourceforge.net/DTD/sodipodi-0.dtd"
   xmlns:inkscape="http://www.inkscape.org/namespaces/inkscape"
   width="120.5mm"
   height="20.200001mm"
   viewBox="0 0 120.5 20.200001"
   version="1.1"
   id="svg846"
   inkscape:version="0.92.3 (2405546, 2018-03-11)"
   sodipodi:docname="muc_labs_logo_bck.svg">
  <defs
     id="defs840" />
  <sodipodi:namedview
     id="base"
     pagecolor="#ffffff"
     bordercolor="#666666"
     borderopacity="1.0"
     inkscape:pageopacity="0.0"
     inkscape:pageshadow="2"
     inkscape:zoom="1.6986111"
     inkscape:cx="149.23195"
     inkscape:cy="10"
     inkscape:document-units="mm"
     inkscape:current-layer="g4555"
     showgrid="false"
     inkscape:window-width="1920"
     inkscape:window-height="1001"
     inkscape:window-x="-9"
     inkscape:window-y="-9"
     inkscape:window-maximized="1" />
  <metadata
     id="metadata843">
    <rdf:RDF>
      <cc:Work
         rdf:about="">
        <dc:format>image/svg+xml</dc:format>
        <dc:type
           rdf:resource="http://purl.org/dc/dcmitype/StillImage" />
        <dc:title></dc:title>
      </cc:Work>
    </rdf:RDF>
  </metadata>
  <g
     inkscape:label="Ebene 1"
     inkscape:groupmode="layer"
     id="layer1"
     transform="translate(0,-276.8)">
    <g
       id="g4555">
      <path
         d="m 0.41474455,296.64409 v -13.73343 q 0,-2.55408 1.55444045,-4.17305 1.5544403,-1.61899 4.0331426,-1.61899 2.9408331,0 4.5232814,2.69365 0.966274,-1.4515 2.072587,-2.0656 1.106314,-0.62805 2.730774,-0.62805 2.57673,0 3.949118,1.61899 1.37239,1.61897 1.37239,4.66155 v 13.24493 h -5.685612 v -12.39357 q 0,-0.92116 -0.154043,-1.21424 -0.14004,-0.30705 -0.588166,-0.30705 -0.840239,0 -0.840239,1.42358 v 12.49128 H 7.6968076 v -12.39357 q 0,-0.9072 -0.1540436,-1.21424 -0.1540437,-0.30705 -0.6021706,-0.30705 -0.840238,0 -0.840238,1.52129 v 12.39357 z"
         style="font-style:normal;font-variant:normal;font-weight:normal;font-stretch:normal;font-size:medium;line-height:0%;font-family:'Bauhaus 93';-inkscape-font-specification:'Bauhaus 93, ';letter-spacing:0px;word-spacing:0px;fill:#006cc2;fill-opacity:1;stroke:none;stroke-width:2.25777793px;stroke-linecap:butt;stroke-linejoin:miter;stroke-opacity:1"
         id="path4522"
         inkscape:connector-curvature="0" />
      <path
         d="m 37.539263,277.59315 v 12.35171 q 0,3.26588 -1.960556,5.21981 -1.946551,1.95395 -5.195472,1.95395 -3.234916,0 -4.957404,-1.89811 -1.708484,-1.89812 -1.708484,-5.45708 v -12.17028 h 5.685611 v 12.15632 q 0,1.74459 1.246353,1.74459 1.204341,0 1.204341,-1.74459 v -12.15632 z"
         style="font-style:normal;font-variant:normal;font-weight:normal;font-stretch:normal;font-size:medium;line-height:0%;font-family:'Bauhaus 93';-inkscape-font-specification:'Bauhaus 93, ';letter-spacing:0px;word-spacing:0px;fill:#006cc2;fill-opacity:1;stroke:none;stroke-width:2.25777793px;stroke-linecap:butt;stroke-linejoin:miter;stroke-opacity:1"
         id="path4524"
         inkscape:connector-curvature="0" />
      <path
         d="m 53.951914,287.33495 5.951686,0.15352 q -0.588167,4.60573 -3.206909,7.11794 -2.604737,2.51221 -6.805928,2.51221 -4.27121,0 -7.156027,-2.84718 -2.870814,-2.86112 -2.870814,-7.09001 0,-4.25681 2.92683,-7.1598 2.940833,-2.90301 7.240051,-2.90301 4.229199,0 7.057999,2.84717 1.960556,1.9679 2.772786,5.485 l -6.091726,0.40474 q -1.022289,-3.1263 -3.879099,-3.1263 -1.820516,0 -3.010853,1.2561 -1.176333,1.25611 -1.176333,3.1961 0,1.8702 1.162329,3.09839 1.162329,1.21424 2.940833,1.21424 1.806512,0 2.870814,-1.07467 1.078306,-1.07467 1.274361,-3.08444 z"
         style="font-style:normal;font-variant:normal;font-weight:normal;font-stretch:normal;font-size:medium;line-height:0%;font-family:'Bauhaus 93';-inkscape-font-specification:'Bauhaus 93, ';letter-spacing:0px;word-spacing:0px;fill:#006cc2;fill-opacity:1;stroke:none;stroke-width:2.25777793px;stroke-linecap:butt;stroke-linejoin:miter;stroke-opacity:1"
         id="path4526"
         inkscape:connector-curvature="0" />
      <path
         d="m 67.073631,286.34403 v 3.69852 h -6.399814 v -3.69852 z"
         style="font-style:normal;font-variant:normal;font-weight:normal;font-stretch:normal;font-size:medium;line-height:0%;font-family:'Bauhaus 93';-inkscape-font-specification:'Bauhaus 93, ';letter-spacing:0px;word-spacing:0px;fill:#000000;fill-opacity:1;stroke:none;stroke-width:2.25777793px;stroke-linecap:butt;stroke-linejoin:miter;stroke-opacity:1"
         id="path4528"
         inkscape:connector-curvature="0" />
      <path
         d="m 68.586059,277.59315 h 5.68561 v 11.31892 q 0,1.32588 0.420119,1.7725 0.434124,0.43266 1.69448,0.43266 h 0.294084 v 5.52686 h -1.512428 q -3.108881,0 -4.845373,-1.80041 -1.736492,-1.81439 -1.736492,-5.02443 z"
         style="font-style:normal;font-variant:normal;font-weight:normal;font-stretch:normal;font-size:medium;line-height:0%;font-family:'Bauhaus 93';-inkscape-font-specification:'Bauhaus 93, ';letter-spacing:0px;word-spacing:0px;fill:#fe0000;fill-opacity:1;stroke:none;stroke-width:2.25777793px;stroke-linecap:butt;stroke-linejoin:miter;stroke-opacity:1"
         id="path4530"
         inkscape:connector-curvature="0" />
      <path
         d="m 85.978988,291.42428 v 5.40125 q -0.644183,0.11166 -1.176333,0.11166 -3.150893,0 -5.251488,-2.0656 -2.100595,-2.0656 -2.100595,-5.17795 0,-3.02862 2.114599,-5.13608 2.128603,-2.10747 5.167464,-2.10747 3.38896,0 5.335511,1.98186 1.960556,1.9679 1.960556,5.3873 v 6.82484 h -5.237484 v -6.44801 q 0,-1.10258 -0.546155,-1.75854 -0.532151,-0.65597 -1.442408,-0.65597 -0.826235,0 -1.428405,0.60013 -0.60217,0.60015 -0.60217,1.4236 0,0.86531 0.546154,1.42358 0.546155,0.55826 1.386392,0.55826 0.686196,0 1.274362,-0.36286 z"
         style="font-style:normal;font-variant:normal;font-weight:normal;font-stretch:normal;font-size:medium;line-height:0%;font-family:'Bauhaus 93';-inkscape-font-specification:'Bauhaus 93, ';letter-spacing:0px;word-spacing:0px;fill:#0000ff;fill-opacity:1;stroke:none;stroke-width:2.25777793px;stroke-linecap:butt;stroke-linejoin:miter;stroke-opacity:1"
         id="path4532"
         inkscape:connector-curvature="0" />
      <path
         d="m 100.01096,277.59315 v 11.40265 q 0,2.77739 2.00256,2.77739 0.85424,0 1.44242,-0.57222 0.60216,-0.58618 0.60216,-1.40963 0,-0.85136 -0.56015,-1.42359 -0.56017,-0.58618 -1.37239,-0.58618 -0.57417,0 -1.31638,0.50244 v -5.75017 q 0.92427,-0.0838 1.4004,-0.0838 2.95484,0 5.05544,2.12142 2.1146,2.12143 2.1146,5.10817 0,3.05653 -2.14261,5.15004 -2.14261,2.09351 -5.2655,2.09351 -1.56845,0 -3.066865,-0.68388 -1.484421,-0.68389 -2.450695,-1.84229 -1.680475,-2.00977 -1.680475,-5.20587 v -11.59804 z"
         style="font-style:normal;font-variant:normal;font-weight:normal;font-stretch:normal;font-size:medium;line-height:0%;font-family:'Bauhaus 93';-inkscape-font-specification:'Bauhaus 93, ';letter-spacing:0px;word-spacing:0px;fill:#00ff00;fill-opacity:1;stroke:none;stroke-width:2.25777793px;stroke-linecap:butt;stroke-linejoin:miter;stroke-opacity:1"
         id="path4534"
         inkscape:connector-curvature="0" />
      <path
         d="m 120.41474,282.92462 v 5.49895 q -1.10632,0 -1.52643,0.4187 -0.40612,0.40475 -0.51815,1.61899 -0.3641,4.0335 -3.13689,5.69435 -1.47042,0.86532 -4.17318,0.86532 h -0.72821 v -5.52687 h 0.23807 q 1.26035,0 1.79251,-0.5164 0.54615,-0.53036 0.63017,-1.84229 0.11203,-2.13538 0.39212,-3.0007 0.29408,-0.86532 1.17633,-1.71668 1.54044,-1.49337 4.27121,-1.49337 z"
         style="font-style:normal;font-variant:normal;font-weight:normal;font-stretch:normal;font-size:medium;line-height:0%;font-family:'Bauhaus 93';-inkscape-font-specification:'Bauhaus 93, ';letter-spacing:0px;word-spacing:0px;fill:#000000;fill-opacity:0.54266214;stroke:none;stroke-width:2.25777793px;stroke-linecap:butt;stroke-linejoin:miter;stroke-opacity:1"
         id="path4536"
         inkscape:connector-curvature="0" />
    </g>
  </g>
</svg>
